<svg id="Layer_1" data-name="Layer 1" xmlns="http://www.w3.org/2000/svg" viewBox="0 0 1920 1080"><defs><style>.cls-1{fill:#4db7ff;}.cls-2{fill:#1e1e1e;}.cls-3{fill:#fff;}</style></defs><polygon class="cls-1" points="468.53 736.18 347.7 604.31 398.13 420.09 550.93 349.68 720.21 427.58 754.66 595.36 651.3 730.19 468.53 736.18"/><path class="cls-2" d="M647.31,748.6H469a13,13,0,0,1-10.12-4.88L347.7,604.31a12.91,12.91,0,0,1-2.49-10.95l39.68-173.85a12.92,12.92,0,0,1,7-8.78l160.66-77.37a12.93,12.93,0,0,1,11.23,0l160.65,77.37a12.92,12.92,0,0,1,7,8.78l39.68,173.85a12.91,12.91,0,0,1-2.49,10.95L657.44,743.72A13,13,0,0,1,647.31,748.6ZM475.24,722.7H641.08L744.48,593,707.57,431.36l-149.41-72-149.41,72L371.84,593Z"/><path class="cls-2" d="M856.28,510.63v20.54H842.11V440.53h14.17v53.34l5.84-6.49,19.06-20.06h17l-24.85,26.61,28.44,37.24H884.31L864,503.37Z"/><path class="cls-2" d="M945.87,522.26a24,24,0,0,1-7.91,7.46,20.56,20.56,0,0,1-10.45,2.69,25.13,25.13,0,0,1-9.06-1.57A17.89,17.89,0,0,1,911.4,526a23,23,0,0,1-4.48-8.47,42.32,42.32,0,0,1-1.6-12.37V467.32h14.11v37.94a35.79,35.79,0,0,0,.65,7.41,11.45,11.45,0,0,0,2.06,4.75,7.68,7.68,0,0,0,3.6,2.6,15.59,15.59,0,0,0,5.14.76,20,20,0,0,0,5.48-.68,15.69,15.69,0,0,0,4.25-1.85,13.51,13.51,0,0,0,2.72-2.51,15.28,15.28,0,0,0,2-3.22v-45.2H959.5v63.85H946.69Z"/><path class="cls-2" d="M1030.43,508.33a40.46,40.46,0,0,1-1.89,7.44,28.65,28.65,0,0,1-3.78,7.37,21.24,21.24,0,0,1-5.66,5.49,21.92,21.92,0,0,1-5.93,2.75,24.89,24.89,0,0,1-7.11,1,25.17,25.17,0,0,1-7.08-.94,19,19,0,0,1-5.73-2.78,24,24,0,0,1-2.45-2,28.28,28.28,0,0,1-2.21-2.39l-.65,7H975.19V440.53H989.3v33A20.29,20.29,0,0,1,992,470.8a19.33,19.33,0,0,1,3.19-2.18,18.7,18.7,0,0,1,4.92-1.86,25.59,25.59,0,0,1,5.82-.62,25,25,0,0,1,7.59,1.09,21.83,21.83,0,0,1,6.22,3.1,19.15,19.15,0,0,1,4.21,4,30.09,30.09,0,0,1,3.28,5.22,37.08,37.08,0,0,1,2.86,8.8,51,51,0,0,1,1,10.26v1.24A53.11,53.11,0,0,1,1030.43,508.33Zm-13.78-15a37,37,0,0,0-.91-4.81,21.55,21.55,0,0,0-2.16-4.92,11.91,11.91,0,0,0-3.57-3.75,10.76,10.76,0,0,0-3.36-1.6,17.27,17.27,0,0,0-9.44.27,12.18,12.18,0,0,0-4,2.27,12.88,12.88,0,0,0-2.21,2.33A16.35,16.35,0,0,0,989.3,486v26.43a16.5,16.5,0,0,0,2,3.22,15.6,15.6,0,0,0,2.63,2.57,13.63,13.63,0,0,0,3.81,1.85,15.75,15.75,0,0,0,4.81.68,14.09,14.09,0,0,0,4.36-.62,12.83,12.83,0,0,0,3.49-1.68,12,12,0,0,0,3.39-3.75,19.34,19.34,0,0,0,2-5.1,29.31,29.31,0,0,0,.89-4.6,45.09,45.09,0,0,0,.3-5.14v-1.24A41.47,41.47,0,0,0,1016.65,493.37Z"/><path class="cls-2" d="M1061.93,530a29.65,29.65,0,0,1-10.07-6.55,28.45,28.45,0,0,1-6.46-9.77,32.15,32.15,0,0,1-2.27-12.18v-2.42a37.11,37.11,0,0,1,2.36-13.58,30.85,30.85,0,0,1,6.49-10.38,28.79,28.79,0,0,1,9.59-6.64,29.21,29.21,0,0,1,11.65-2.33,30,30,0,0,1,12.22,2.33,24.91,24.91,0,0,1,8.91,6.46,28.2,28.2,0,0,1,5.43,10,41.72,41.72,0,0,1,1.83,12.63v6.08h-44.26v.3a25.41,25.41,0,0,0,2,7,17.29,17.29,0,0,0,3.72,5.07,16.4,16.4,0,0,0,5.58,3.66,18.58,18.58,0,0,0,7,1.3,23.67,23.67,0,0,0,9.8-2,19.32,19.32,0,0,0,7.49-5.81l7.55,7.32a28.13,28.13,0,0,1-9.77,8.26q-6.57,3.66-15.9,3.66A34.42,34.42,0,0,1,1061.93,530Zm5.66-51.31a14.33,14.33,0,0,0-4.58,3.1,17.84,17.84,0,0,0-3.36,5,26.2,26.2,0,0,0-2,6.55h30v-.94a16.18,16.18,0,0,0-1-5.52,14.76,14.76,0,0,0-2.84-4.81,12.9,12.9,0,0,0-4.45-3.21,15,15,0,0,0-6.23-1.21A14,14,0,0,0,1067.59,478.68Z"/><path class="cls-2" d="M1158.71,466.61a28.68,28.68,0,0,1,5,1.12l-2,13.93a62.29,62.29,0,0,0-6.4-1.06,55.66,55.66,0,0,0-6.29-.36,26.41,26.41,0,0,0-6.37.71,15.73,15.73,0,0,0-5,2.18,14.24,14.24,0,0,0-4,3.6,21,21,0,0,0-2.77,5v39.42h-14.11V467.32H1130l.59,8.85.06,1.48a29.11,29.11,0,0,1,9.36-8.44,24.09,24.09,0,0,1,12.06-3.07A44.94,44.94,0,0,1,1158.71,466.61Z"/><path class="cls-2" d="M1175.62,467.32h12.74l.89,9.09a26.8,26.8,0,0,1,2.86-3.4,25.2,25.2,0,0,1,3.33-2.8,23.25,23.25,0,0,1,13.28-4.07,27.22,27.22,0,0,1,9,1.41,17.19,17.19,0,0,1,7,4.49,20.77,20.77,0,0,1,4.48,7.82,36.35,36.35,0,0,1,1.59,11.48v39.83h-14.1v-39.6a20.88,20.88,0,0,0-.89-6.61,10,10,0,0,0-2.59-4.25,9.87,9.87,0,0,0-4.13-2.27,20.72,20.72,0,0,0-5.55-.68,16.7,16.7,0,0,0-4.84.68,14.79,14.79,0,0,0-4.07,1.92,15,15,0,0,0-2.66,2.3,18.58,18.58,0,0,0-2.18,2.95v45.56h-14.1Z"/><path class="cls-2" d="M1262.58,530a29.61,29.61,0,0,1-10.06-6.55,28.45,28.45,0,0,1-6.46-9.77,32.15,32.15,0,0,1-2.28-12.18v-2.42a37.32,37.32,0,0,1,2.36-13.58,31,31,0,0,1,6.5-10.38,28.79,28.79,0,0,1,9.59-6.64,29.21,29.21,0,0,1,11.65-2.33,30.07,30.07,0,0,1,12.22,2.33,25,25,0,0,1,8.91,6.46,28.36,28.36,0,0,1,5.43,10,41.72,41.72,0,0,1,1.83,12.63v6.08H1258v.3a25.41,25.41,0,0,0,2,7,16.94,16.94,0,0,0,3.72,5.07,16.4,16.4,0,0,0,5.58,3.66,18.55,18.55,0,0,0,7,1.3,23.59,23.59,0,0,0,9.79-2,19.28,19.28,0,0,0,7.5-5.81l7.55,7.32a28.23,28.23,0,0,1-9.77,8.26q-6.57,3.66-15.9,3.66A34.51,34.51,0,0,1,1262.58,530Zm5.67-51.31a14.33,14.33,0,0,0-4.58,3.1,17.84,17.84,0,0,0-3.36,5,26.2,26.2,0,0,0-2,6.55h30v-.94a16.18,16.18,0,0,0-1-5.52,14.94,14.94,0,0,0-2.84-4.81,12.9,12.9,0,0,0-4.45-3.21,15,15,0,0,0-6.23-1.21A14,14,0,0,0,1268.25,478.68Z"/><path class="cls-2" d="M1334.49,467.32h24v10.56h-24v30.51a17.74,17.74,0,0,0,.86,5.93,9,9,0,0,0,2.39,3.75,8.85,8.85,0,0,0,3.66,2,17.53,17.53,0,0,0,4.66.59q1.83,0,3.78-.18c1.3-.12,2.55-.28,3.77-.47s2.3-.35,3.33-.56l2.63-.57,1.54,9.74a16.23,16.23,0,0,1-3.69,1.62,40.65,40.65,0,0,1-4.63,1.16c-1.65.31-3.37.56-5.17.73a53.34,53.34,0,0,1-5.34.27,28.12,28.12,0,0,1-8.87-1.33,17.52,17.52,0,0,1-6.94-4.16,18.72,18.72,0,0,1-4.51-7.14,30,30,0,0,1-1.63-10.5v-31.4h-15.46V467.32h15.46V451.74h14.16Z"/><path class="cls-2" d="M1385.88,530a29.65,29.65,0,0,1-10.07-6.55,28.45,28.45,0,0,1-6.46-9.77,32.34,32.34,0,0,1-2.27-12.18v-2.42a37.11,37.11,0,0,1,2.36-13.58,30.85,30.85,0,0,1,6.49-10.38,28.89,28.89,0,0,1,9.59-6.64,29.24,29.24,0,0,1,11.65-2.33,30,30,0,0,1,12.22,2.33,24.91,24.91,0,0,1,8.91,6.46,28.2,28.2,0,0,1,5.43,10,41.72,41.72,0,0,1,1.83,12.63v6.08H1381.3v.3a25.05,25.05,0,0,0,2,7A17.08,17.08,0,0,0,1387,516a16.4,16.4,0,0,0,5.58,3.66,18.62,18.62,0,0,0,7.05,1.3,23.67,23.67,0,0,0,9.8-2,19.32,19.32,0,0,0,7.49-5.81l7.56,7.32a28.32,28.32,0,0,1-9.77,8.26,32.27,32.27,0,0,1-15.9,3.66A34.47,34.47,0,0,1,1385.88,530Zm5.66-51.31a14.33,14.33,0,0,0-4.58,3.1,17.84,17.84,0,0,0-3.36,5,26.2,26.2,0,0,0-2,6.55h30v-.94a16.18,16.18,0,0,0-1-5.52,14.91,14.91,0,0,0-2.83-4.81,12.94,12.94,0,0,0-4.46-3.21,15,15,0,0,0-6.23-1.21A14,14,0,0,0,1391.54,478.68Z"/><path class="cls-2" d="M1477.7,510.93a7.92,7.92,0,0,0-2.44-2.48,25,25,0,0,0-4.78-2,66.4,66.4,0,0,0-7.38-1.77A70.72,70.72,0,0,1,1453,501.9a32.48,32.48,0,0,1-7.88-4,17.29,17.29,0,0,1-5.08-5.31,13.7,13.7,0,0,1-1.82-7.15,15.7,15.7,0,0,1,1.85-7.4,19,19,0,0,1,5.35-6.17,26.35,26.35,0,0,1,8.29-4.19,35.94,35.94,0,0,1,10.82-1.53A38.91,38.91,0,0,1,1476,467.7a27.17,27.17,0,0,1,8.62,4.28,19,19,0,0,1,5.37,6.43,17.49,17.49,0,0,1,1.89,8h-14.11a8,8,0,0,0-.74-3.4,8.94,8.94,0,0,0-2.15-2.92,12.22,12.22,0,0,0-4.25-2.45,18.27,18.27,0,0,0-6.08-.91,20.74,20.74,0,0,0-5.58.68,11.53,11.53,0,0,0-3.92,1.86,7.19,7.19,0,0,0-2.3,2.51,6.36,6.36,0,0,0-.76,3,6.72,6.72,0,0,0,.64,3,5.74,5.74,0,0,0,2.31,2.34,16.89,16.89,0,0,0,4.27,1.94,52.32,52.32,0,0,0,6.94,1.6,86.25,86.25,0,0,1,10.68,2.59,33.49,33.49,0,0,1,8.26,3.78,17.47,17.47,0,0,1,5.31,5.55,14.52,14.52,0,0,1,1.89,7.55,15.79,15.79,0,0,1-2,7.79,18.51,18.51,0,0,1-5.58,6.08,28.79,28.79,0,0,1-8.74,4,41.63,41.63,0,0,1-11.27,1.42,37.79,37.79,0,0,1-12.25-1.83,27.85,27.85,0,0,1-8.93-4.84A20.15,20.15,0,0,1,1438,519a17.42,17.42,0,0,1-1.89-7.79h13.69a9.7,9.7,0,0,0,1.57,5,10.69,10.69,0,0,0,3.51,3.28,14.33,14.33,0,0,0,4.72,1.85,25.51,25.51,0,0,0,5.37.57,23.93,23.93,0,0,0,6.4-.77,12.51,12.51,0,0,0,4.4-2.07,7.62,7.62,0,0,0,2-2.33,6,6,0,0,0,.67-2.8A5.77,5.77,0,0,0,1477.7,510.93Z"/><path class="cls-2" d="M967.58,653.36a41.38,41.38,0,0,1-1.89,7.43,29.17,29.17,0,0,1-3.77,7.38,21.54,21.54,0,0,1-11.6,8.23,26.6,26.6,0,0,1-14.2,0,18.87,18.87,0,0,1-5.72-2.77,25.35,25.35,0,0,1-2.46-2,26.82,26.82,0,0,1-2.21-2.39l-.64,7H912.35V585.55h14.09V618.6a20.26,20.26,0,0,1,5.9-5,19.5,19.5,0,0,1,4.93-1.86,26.14,26.14,0,0,1,5.81-.62,25,25,0,0,1,7.59,1.1,21.93,21.93,0,0,1,6.22,3.09,18.81,18.81,0,0,1,4.22,4,30.75,30.75,0,0,1,3.29,5.22,37.91,37.91,0,0,1,2.84,8.79,51.22,51.22,0,0,1,1,10.27v1.24A54.43,54.43,0,0,1,967.58,653.36Zm-13.79-15a33.93,33.93,0,0,0-.91-4.81,21.39,21.39,0,0,0-2.16-4.93,12.09,12.09,0,0,0-3.56-3.75,10.91,10.91,0,0,0-3.37-1.59,17.27,17.27,0,0,0-9.44.27,12.23,12.23,0,0,0-4,2.27,11.94,11.94,0,0,0-2.21,2.33,15.71,15.71,0,0,0-1.69,2.86v26.44a17.53,17.53,0,0,0,2,3.22,15.53,15.53,0,0,0,2.63,2.56,13.57,13.57,0,0,0,3.82,1.86,16,16,0,0,0,4.8.68,14.46,14.46,0,0,0,4.37-.62,13,13,0,0,0,3.49-1.68,12.36,12.36,0,0,0,3.39-3.75,20.21,20.21,0,0,0,2-5.1,30.45,30.45,0,0,0,.87-4.61,40.63,40.63,0,0,0,.31-5.13v-1.24A41.33,41.33,0,0,0,953.79,638.4Z"/><path class="cls-2" d="M986.32,701.66c-1.25-.22-2.43-.46-3.57-.74l2-11c.78,0,1.67.09,2.68.14s1.82.09,2.45.09a6.16,6.16,0,0,0,3.72-1.21,15.37,15.37,0,0,0,2.89-2.74c.78-1,1.42-1.93,1.92-2.72s.95-1.61,1.38-2.47l4-7.62-27.21-61h15.52l15.88,39,2.18,7,2.66-6.84,15.4-39.19h15.64l-32.4,73.53a54.23,54.23,0,0,1-2.8,5.29,24.11,24.11,0,0,1-4.22,5.16,22.6,22.6,0,0,1-6,4,19.15,19.15,0,0,1-8.15,1.62A23.39,23.39,0,0,1,986.32,701.66Z"/><path class="cls-2" d="M1059.75,610.75c1.75-1.92,4.27-2.89,7.58-2.89a9.89,9.89,0,0,1,7.55,2.86,9.75,9.75,0,0,1,2.72,7,9.46,9.46,0,0,1-2.74,6.91,10.13,10.13,0,0,1-7.53,2.77,9.94,9.94,0,0,1-7.53-2.8,9.56,9.56,0,0,1-2.68-6.88A10,10,0,0,1,1059.75,610.75Zm0,50c1.75-1.92,4.27-2.89,7.58-2.89a9.89,9.89,0,0,1,7.55,2.87,9.73,9.73,0,0,1,2.72,7,9.46,9.46,0,0,1-2.74,6.9,10.13,10.13,0,0,1-7.53,2.78,10,10,0,0,1-7.53-2.81,9.54,9.54,0,0,1-2.68-6.87A10,10,0,0,1,1059.75,660.73Z"/><path class="cls-2" d="M1124.78,675a29.76,29.76,0,0,1-10.06-6.55,28.64,28.64,0,0,1-6.46-9.77,32.21,32.21,0,0,1-2.28-12.19v-2.42a37.3,37.3,0,0,1,2.36-13.57,31.21,31.21,0,0,1,6.49-10.39,28.9,28.9,0,0,1,9.6-6.63,29.21,29.21,0,0,1,11.65-2.34,30,30,0,0,1,12.21,2.34,24.79,24.79,0,0,1,8.91,6.46,27.87,27.87,0,0,1,5.43,10,41.36,41.36,0,0,1,1.83,12.63v6.08H1120.2v.29a25.19,25.19,0,0,0,2,7,17.11,17.11,0,0,0,3.72,5.08,16.6,16.6,0,0,0,5.58,3.66,18.74,18.74,0,0,0,7,1.3,23.59,23.59,0,0,0,9.79-2,19.54,19.54,0,0,0,7.5-5.81l7.55,7.32a28.33,28.33,0,0,1-9.77,8.26,32.25,32.25,0,0,1-15.9,3.66A34.47,34.47,0,0,1,1124.78,675Zm5.67-51.32a14.5,14.5,0,0,0-4.58,3.1,17.9,17.9,0,0,0-3.36,5,25.79,25.79,0,0,0-2,6.55h30v-.94a16,16,0,0,0-1-5.52,14.74,14.74,0,0,0-2.83-4.81,12.92,12.92,0,0,0-4.45-3.22,15.18,15.18,0,0,0-6.23-1.21A14.15,14.15,0,0,0,1130.45,623.7Z"/><path class="cls-2" d="M1221.35,612.34H1237l-22.43,31.46,23.14,32.4h-15.58l-15.94-22.31-15.87,22.31h-15.64l23.14-32.4-22.37-31.46H1191l15.11,21.49Z"/><path class="cls-2" d="M1287.89,673.33c-.26-1.12-.49-2.29-.68-3.51a27.17,27.17,0,0,1-3.33,2.92,20.89,20.89,0,0,1-4.17,2.39,24.6,24.6,0,0,1-5,1.66,26.6,26.6,0,0,1-5.73.59,27,27,0,0,1-9.06-1.45,21.11,21.11,0,0,1-7-4,17.37,17.37,0,0,1-4.58-6,17.88,17.88,0,0,1-1.61-7.59,20,20,0,0,1,2.09-9.29,17.88,17.88,0,0,1,6.11-6.7,28.15,28.15,0,0,1,9.18-3.77,53.23,53.23,0,0,1,12.36-1.3h10.27V633a11.37,11.37,0,0,0-.86-4.49,10.14,10.14,0,0,0-2.45-3.48,12,12,0,0,0-4.16-2.27,18.24,18.24,0,0,0-5.64-.8,16.22,16.22,0,0,0-5,.71,10,10,0,0,0-3.57,2,6.73,6.73,0,0,0-2.09,2.74,8.79,8.79,0,0,0-.68,3.46h-14.17a16.91,16.91,0,0,1,1.83-7.38,18.53,18.53,0,0,1,5.2-6.26,24.57,24.57,0,0,1,8.17-4.39,34.84,34.84,0,0,1,11.12-1.63,38.31,38.31,0,0,1,10.48,1.39,24.81,24.81,0,0,1,8.41,4.1,18.8,18.8,0,0,1,5.54,6.88,21.78,21.78,0,0,1,2,9.59V661.5a45.51,45.51,0,0,0,.61,7.76,24.43,24.43,0,0,0,1.81,5.93v1h-14.4A10.91,10.91,0,0,1,1287.89,673.33Zm-11-8a20.65,20.65,0,0,0,4.33-1.83,15.76,15.76,0,0,0,3.36-2.54,11.51,11.51,0,0,0,2.19-3v-11.8h-9.09a32.66,32.66,0,0,0-8,.85,14.24,14.24,0,0,0-5.37,2.45,8.52,8.52,0,0,0-2.63,3.25,10.34,10.34,0,0,0-.85,4.25,9.29,9.29,0,0,0,.71,3.63,7.74,7.74,0,0,0,2.06,2.86,9.76,9.76,0,0,0,3.37,1.86,14.79,14.79,0,0,0,4.72.68A18.35,18.35,0,0,0,1276.92,665.34Z"/><path class="cls-2" d="M1326.7,619.37a14.75,14.75,0,0,1,5-6,13.49,13.49,0,0,1,7.76-2.19,15.43,15.43,0,0,1,4.25.54,8.69,8.69,0,0,1,3.25,1.65,9.53,9.53,0,0,1,1.88,2,12.88,12.88,0,0,1,1.42,2.63,16.74,16.74,0,0,1,1.89-2.54,12.32,12.32,0,0,1,2.3-2,13.29,13.29,0,0,1,3.57-1.66,15.23,15.23,0,0,1,4.34-.59,15,15,0,0,1,5.64,1,11.81,11.81,0,0,1,4.45,3.15,15.74,15.74,0,0,1,2.92,5.82,31.11,31.11,0,0,1,1,8.58V676.2h-13V629.64a10.78,10.78,0,0,0-.41-3.22,5.54,5.54,0,0,0-1.18-2.15,4.71,4.71,0,0,0-1.86-1.13,7.88,7.88,0,0,0-2.39-.35,7.24,7.24,0,0,0-2.36.35,5.52,5.52,0,0,0-1.77,1,5.21,5.21,0,0,0-1.18,1.38,6.7,6.7,0,0,0-.71,1.8V676.2h-12.75V629.58a11.21,11.21,0,0,0-.39-3.22,4.45,4.45,0,0,0-3-3.22,7.21,7.21,0,0,0-2.32-.35,7.7,7.7,0,0,0-2.51.38,4.91,4.91,0,0,0-1.86,1.15,5.62,5.62,0,0,0-1,1.24,10.38,10.38,0,0,0-.8,1.6v49h-13V612.34h12.27Z"/><path class="cls-2" d="M1388.48,612.34h13l.54,6.56a21.58,21.58,0,0,1,2.83-2.9,19,19,0,0,1,3.3-2.24,21.4,21.4,0,0,1,5-1.92,24.89,24.89,0,0,1,5.94-.68,23.65,23.65,0,0,1,10.82,2.37,21.91,21.91,0,0,1,7.89,6.66,30.83,30.83,0,0,1,4.81,10.3,50.43,50.43,0,0,1,1.62,13.19v1.24a48.86,48.86,0,0,1-1.62,12.86,30.76,30.76,0,0,1-4.81,10.27,23,23,0,0,1-7.85,6.85,22.44,22.44,0,0,1-10.68,2.48,26.12,26.12,0,0,1-6.28-.71,19.09,19.09,0,0,1-8-4,21,21,0,0,1-2.42-2.3v30.34h-14.11Zm40.81,23.23a21.2,21.2,0,0,0-2.63-6.64,13.7,13.7,0,0,0-4.66-4.49,13.26,13.26,0,0,0-6.79-1.65,17,17,0,0,0-4.07.47,12.65,12.65,0,0,0-3.36,1.36,11.68,11.68,0,0,0-3,2.36,16.25,16.25,0,0,0-2.2,3.19v28.38a14.8,14.8,0,0,0,2,3,11.63,11.63,0,0,0,2.72,2.33,15,15,0,0,0,3.6,1.51,16.8,16.8,0,0,0,4.48.56,12.79,12.79,0,0,0,6.7-1.68,14,14,0,0,0,4.63-4.58,22.19,22.19,0,0,0,2.6-6.76,37.88,37.88,0,0,0,.82-8.05v-1.24A36.89,36.89,0,0,0,1429.29,635.57Z"/><path class="cls-2" d="M1485.92,585.55v79h19.36V676.2h-53.76V664.51h20.18V597.3h-20.18V585.55Z"/><path class="cls-2" d="M1535.77,675a29.8,29.8,0,0,1-10.07-6.55,28.64,28.64,0,0,1-6.46-9.77,32.4,32.4,0,0,1-2.27-12.19v-2.42a37.09,37.09,0,0,1,2.36-13.57,31.06,31.06,0,0,1,6.49-10.39,28.86,28.86,0,0,1,9.59-6.63,29.25,29.25,0,0,1,11.65-2.34,30,30,0,0,1,12.22,2.34,24.79,24.79,0,0,1,8.91,6.46,28,28,0,0,1,5.43,10,41.67,41.67,0,0,1,1.83,12.63v6.08h-44.26v.29a24.86,24.86,0,0,0,2,7,17.25,17.25,0,0,0,3.71,5.08,16.74,16.74,0,0,0,5.59,3.66,18.73,18.73,0,0,0,7,1.3,23.67,23.67,0,0,0,9.8-2,19.44,19.44,0,0,0,7.49-5.81l7.56,7.32a28.43,28.43,0,0,1-9.77,8.26,32.27,32.27,0,0,1-15.9,3.66A34.47,34.47,0,0,1,1535.77,675Zm5.66-51.32a14.45,14.45,0,0,0-4.57,3.1,17.92,17.92,0,0,0-3.37,5,26.2,26.2,0,0,0-2,6.55h30v-.94a16,16,0,0,0-1-5.52,14.91,14.91,0,0,0-2.83-4.81,13,13,0,0,0-4.45-3.22,15.18,15.18,0,0,0-6.23-1.21A14.24,14.24,0,0,0,1541.43,623.7Z"/><path class="cls-3" d="M490.93,583.37a11.14,11.14,0,0,1-8.51-4,11.62,11.62,0,0,1,1.14-16.18L517.77,533l-39.63-30.9A11.62,11.62,0,0,1,476,486a11.1,11.1,0,0,1,15.77-2.15l50.61,39.46a11.61,11.61,0,0,1,.53,17.78l-44.65,39.46A11.06,11.06,0,0,1,490.93,583.37Z"/><path class="cls-3" d="M631.35,613H553.24a11.47,11.47,0,0,1,0-22.94h78.11a11.47,11.47,0,0,1,0,22.94Z"/></svg>